<svg xmlns="http://www.w3.org/2000/svg" width="292" height="68" viewBox="29 151 292 68" preserveAspectRatio="xMidYMid meet" version="1.0"><defs><clipPath id="e082a12300"><path d="M 45 177 L 92 177 L 92 218.105469 L 45 218.105469 Z M 45 177 " clip-rule="nonzero"/></clipPath><clipPath id="eda3e86467"><path d="M 29.917969 151.355469 L 107.167969 151.355469 L 107.167969 218.105469 L 29.917969 218.105469 Z M 29.917969 151.355469 " clip-rule="nonzero"/></clipPath></defs><g clip-path="url(#e082a12300)"><path fill="#4a6647" d="M 91.925781 218.121094 L 45.082031 218.121094 L 68.503906 177.554688 L 74.15625 187.347656 L 66.164062 201.195312 L 62.046875 208.324219 L 62.046875 208.328125 L 86.269531 208.328125 Z M 91.925781 218.121094 " fill-opacity="1" fill-rule="nonzero"/></g><g clip-path="url(#eda3e86467)"><path fill="#4a6647" d="M 107.007812 218.121094 L 68.464844 151.363281 L 29.917969 218.121094 L 41.269531 218.121094 L 68.503906 171.023438 L 82.5 195.265625 L 73.359375 195.265625 L 67.707031 205.058594 L 88.15625 205.058594 L 95.699219 218.121094 Z M 107.007812 218.121094 " fill-opacity="1" fill-rule="nonzero"/></g><g fill="#4a6647" fill-opacity="1"><g transform="translate(114.472979, 184.045536)"><g><path d="M 17.109375 -2.359375 C 17.347656 -1.734375 17.625 -1.28125 17.9375 -1 C 18.257812 -0.726562 18.570312 -0.582031 18.875 -0.5625 L 18.875 0 C 17.75 -0.0507812 16.328125 -0.078125 14.609375 -0.078125 C 12.710938 -0.078125 11.296875 -0.0507812 10.359375 0 L 10.359375 -0.5625 C 11.066406 -0.59375 11.566406 -0.675781 11.859375 -0.8125 C 12.160156 -0.957031 12.3125 -1.207031 12.3125 -1.5625 C 12.3125 -1.90625 12.203125 -2.351562 11.984375 -2.90625 L 10.296875 -7.5 L 4.203125 -7.5 L 3.46875 -5.578125 C 2.945312 -4.234375 2.6875 -3.195312 2.6875 -2.46875 C 2.6875 -1.769531 2.894531 -1.285156 3.3125 -1.015625 C 3.738281 -0.742188 4.363281 -0.59375 5.1875 -0.5625 L 5.1875 0 C 3.914062 -0.0507812 2.753906 -0.078125 1.703125 -0.078125 C 0.847656 -0.078125 0.140625 -0.0507812 -0.421875 0 L -0.421875 -0.5625 C 0.492188 -0.726562 1.296875 -1.707031 1.984375 -3.5 L 8.375 -19.875 C 8.582031 -19.863281 8.910156 -19.859375 9.359375 -19.859375 C 9.804688 -19.859375 10.117188 -19.863281 10.296875 -19.875 Z M 10.109375 -8.0625 L 7.34375 -15.625 L 4.421875 -8.0625 Z M 10.109375 -8.0625 "/></g></g></g><g fill="#4a6647" fill-opacity="1"><g transform="translate(137.318418, 184.045536)"><g><path d="M 17.890625 -1.984375 C 18.265625 -1.441406 18.5625 -1.078125 18.78125 -0.890625 C 19.007812 -0.703125 19.3125 -0.601562 19.6875 -0.59375 L 19.6875 0 C 17.738281 -0.0703125 16.457031 -0.109375 15.84375 -0.109375 C 15.25 -0.109375 13.941406 -0.0820312 11.921875 -0.03125 C 11.773438 -0.0078125 11.582031 0 11.34375 0 L 11.34375 -0.59375 C 12.007812 -0.59375 12.484375 -0.625 12.765625 -0.6875 C 13.046875 -0.75 13.1875 -0.875 13.1875 -1.0625 C 13.1875 -1.195312 13.117188 -1.359375 12.984375 -1.546875 L 8.28125 -8.453125 L 6.046875 -5.40625 C 5.191406 -4.25 4.765625 -3.269531 4.765625 -2.46875 C 4.765625 -1.882812 4.972656 -1.425781 5.390625 -1.09375 C 5.804688 -0.769531 6.390625 -0.59375 7.140625 -0.5625 L 7.140625 0 C 6.078125 -0.0507812 4.601562 -0.078125 2.71875 -0.078125 C 1.59375 -0.078125 0.734375 -0.0507812 0.140625 0 L 0.140625 -0.5625 C 1.429688 -0.96875 2.785156 -2.101562 4.203125 -3.96875 L 7.921875 -8.984375 L 1.875 -17.859375 C 1.5 -18.421875 1.195312 -18.789062 0.96875 -18.96875 C 0.75 -19.144531 0.453125 -19.242188 0.078125 -19.265625 L 0.078125 -19.859375 C 0.304688 -19.859375 0.492188 -19.847656 0.640625 -19.828125 C 2.429688 -19.765625 3.582031 -19.734375 4.09375 -19.734375 C 5.71875 -19.734375 7.144531 -19.773438 8.375 -19.859375 L 8.375 -19.265625 C 7.738281 -19.265625 7.28125 -19.222656 7 -19.140625 C 6.71875 -19.054688 6.578125 -18.921875 6.578125 -18.734375 C 6.578125 -18.585938 6.648438 -18.410156 6.796875 -18.203125 L 10.96875 -12.09375 L 13.046875 -14.890625 C 13.921875 -16.046875 14.359375 -16.988281 14.359375 -17.71875 C 14.359375 -18.1875 14.179688 -18.550781 13.828125 -18.8125 C 13.472656 -19.070312 12.96875 -19.222656 12.3125 -19.265625 L 12.3125 -19.828125 C 13.382812 -19.765625 14.5625 -19.734375 15.84375 -19.734375 C 16.96875 -19.734375 17.828125 -19.765625 18.421875 -19.828125 L 18.421875 -19.265625 C 17.828125 -19.097656 17.222656 -18.75 16.609375 -18.21875 C 16.003906 -17.695312 15.429688 -17.066406 14.890625 -16.328125 L 11.34375 -11.5625 Z M 17.890625 -1.984375 "/></g></g></g><g fill="#4a6647" fill-opacity="1"><g transform="translate(160.835773, 184.045536)"><g><path d="M 9.609375 -19.265625 C 8.972656 -19.222656 8.515625 -19.144531 8.234375 -19.03125 C 7.953125 -18.925781 7.757812 -18.710938 7.65625 -18.390625 C 7.550781 -18.078125 7.5 -17.566406 7.5 -16.859375 L 7.5 -2.96875 C 7.5 -2.257812 7.550781 -1.742188 7.65625 -1.421875 C 7.757812 -1.109375 7.953125 -0.894531 8.234375 -0.78125 C 8.515625 -0.664062 8.972656 -0.59375 9.609375 -0.5625 L 9.609375 0 C 8.597656 -0.0507812 7.1875 -0.078125 5.375 -0.078125 C 3.375 -0.078125 1.898438 -0.0507812 0.953125 0 L 0.953125 -0.5625 C 1.566406 -0.59375 2.019531 -0.664062 2.3125 -0.78125 C 2.601562 -0.894531 2.796875 -1.109375 2.890625 -1.421875 C 2.992188 -1.742188 3.046875 -2.257812 3.046875 -2.96875 L 3.046875 -16.859375 C 3.046875 -17.566406 2.992188 -18.078125 2.890625 -18.390625 C 2.796875 -18.710938 2.601562 -18.925781 2.3125 -19.03125 C 2.019531 -19.144531 1.566406 -19.222656 0.953125 -19.265625 L 0.953125 -19.828125 C 1.898438 -19.765625 3.375 -19.734375 5.375 -19.734375 C 7.1875 -19.734375 8.597656 -19.765625 9.609375 -19.828125 Z M 9.609375 -19.265625 "/></g></g></g><g fill="#4a6647" fill-opacity="1"><g transform="translate(175.534323, 184.045536)"><g><path d="M 7.953125 -20.1875 C 8.921875 -20.1875 9.691406 -20.09375 10.265625 -19.90625 C 10.847656 -19.71875 11.441406 -19.445312 12.046875 -19.09375 C 12.242188 -18.976562 12.421875 -18.882812 12.578125 -18.8125 C 12.742188 -18.738281 12.878906 -18.703125 12.984375 -18.703125 C 13.160156 -18.703125 13.296875 -18.800781 13.390625 -19 C 13.484375 -19.195312 13.554688 -19.507812 13.609375 -19.9375 L 14.25 -19.9375 C 14.15625 -18.6875 14.109375 -16.554688 14.109375 -13.546875 L 13.46875 -13.546875 C 13.394531 -14.554688 13.164062 -15.519531 12.78125 -16.4375 C 12.394531 -17.351562 11.851562 -18.09375 11.15625 -18.65625 C 10.457031 -19.226562 9.640625 -19.515625 8.703125 -19.515625 C 7.796875 -19.515625 7.054688 -19.253906 6.484375 -18.734375 C 5.910156 -18.222656 5.625 -17.53125 5.625 -16.65625 C 5.625 -16.007812 5.765625 -15.441406 6.046875 -14.953125 C 6.328125 -14.460938 6.71875 -14.015625 7.21875 -13.609375 C 7.726562 -13.210938 8.503906 -12.671875 9.546875 -11.984375 L 10.4375 -11.375 C 11.539062 -10.644531 12.410156 -10.007812 13.046875 -9.46875 C 13.679688 -8.925781 14.195312 -8.296875 14.59375 -7.578125 C 15 -6.859375 15.203125 -6.019531 15.203125 -5.0625 C 15.203125 -3.875 14.894531 -2.875 14.28125 -2.0625 C 13.664062 -1.25 12.828125 -0.632812 11.765625 -0.21875 C 10.710938 0.1875 9.546875 0.390625 8.265625 0.390625 C 7.210938 0.390625 6.34375 0.296875 5.65625 0.109375 C 4.96875 -0.078125 4.332031 -0.328125 3.75 -0.640625 C 3.34375 -0.898438 3.023438 -1.03125 2.796875 -1.03125 C 2.628906 -1.03125 2.5 -0.929688 2.40625 -0.734375 C 2.3125 -0.546875 2.238281 -0.234375 2.1875 0.203125 L 1.546875 0.203125 C 1.617188 -0.972656 1.65625 -3.492188 1.65625 -7.359375 L 2.296875 -7.359375 C 2.421875 -5.273438 2.882812 -3.582031 3.6875 -2.28125 C 4.5 -0.988281 5.734375 -0.34375 7.390625 -0.34375 C 8.398438 -0.34375 9.226562 -0.609375 9.875 -1.140625 C 10.53125 -1.679688 10.859375 -2.457031 10.859375 -3.46875 C 10.859375 -4.519531 10.519531 -5.414062 9.84375 -6.15625 C 9.175781 -6.90625 8.113281 -7.75 6.65625 -8.6875 C 5.539062 -9.40625 4.644531 -10.035156 3.96875 -10.578125 C 3.300781 -11.117188 2.753906 -11.757812 2.328125 -12.5 C 1.898438 -13.238281 1.6875 -14.09375 1.6875 -15.0625 C 1.6875 -16.1875 1.96875 -17.132812 2.53125 -17.90625 C 3.101562 -18.675781 3.863281 -19.25 4.8125 -19.625 C 5.769531 -20 6.816406 -20.1875 7.953125 -20.1875 Z M 7.953125 -20.1875 "/></g></g></g><g fill="#4a6647" fill-opacity="1"><g transform="translate(114.472395, 217.445537)"><g><path d="M 17.109375 -2.359375 C 17.347656 -1.734375 17.625 -1.28125 17.9375 -1 C 18.257812 -0.726562 18.570312 -0.582031 18.875 -0.5625 L 18.875 0 C 17.75 -0.0507812 16.328125 -0.078125 14.609375 -0.078125 C 12.710938 -0.078125 11.296875 -0.0507812 10.359375 0 L 10.359375 -0.5625 C 11.066406 -0.59375 11.566406 -0.675781 11.859375 -0.8125 C 12.160156 -0.957031 12.3125 -1.207031 12.3125 -1.5625 C 12.3125 -1.90625 12.203125 -2.351562 11.984375 -2.90625 L 10.296875 -7.5 L 4.203125 -7.5 L 3.46875 -5.578125 C 2.945312 -4.234375 2.6875 -3.195312 2.6875 -2.46875 C 2.6875 -1.769531 2.894531 -1.285156 3.3125 -1.015625 C 3.738281 -0.742188 4.363281 -0.59375 5.1875 -0.5625 L 5.1875 0 C 3.914062 -0.0507812 2.753906 -0.078125 1.703125 -0.078125 C 0.847656 -0.078125 0.140625 -0.0507812 -0.421875 0 L -0.421875 -0.5625 C 0.492188 -0.726562 1.296875 -1.707031 1.984375 -3.5 L 8.375 -19.875 C 8.582031 -19.863281 8.910156 -19.859375 9.359375 -19.859375 C 9.804688 -19.859375 10.117188 -19.863281 10.296875 -19.875 Z M 10.109375 -8.0625 L 7.34375 -15.625 L 4.421875 -8.0625 Z M 10.109375 -8.0625 "/></g></g></g><g fill="#4a6647" fill-opacity="1"><g transform="translate(134.993835, 217.445537)"><g><path d="M 11.109375 -20.21875 C 12.234375 -20.21875 13.1875 -20.054688 13.96875 -19.734375 C 14.75 -19.421875 15.515625 -18.972656 16.265625 -18.390625 C 16.472656 -18.222656 16.648438 -18.140625 16.796875 -18.140625 C 17.171875 -18.140625 17.414062 -18.703125 17.53125 -19.828125 L 18.171875 -19.828125 C 18.097656 -18.554688 18.0625 -16.296875 18.0625 -13.046875 L 17.421875 -13.046875 C 17.253906 -14.429688 17.03125 -15.484375 16.75 -16.203125 C 16.46875 -16.929688 15.988281 -17.566406 15.3125 -18.109375 C 14.84375 -18.554688 14.300781 -18.894531 13.6875 -19.125 C 13.070312 -19.363281 12.429688 -19.484375 11.765625 -19.484375 C 9.878906 -19.484375 8.476562 -18.5625 7.5625 -16.71875 C 6.644531 -14.882812 6.1875 -12.597656 6.1875 -9.859375 C 6.1875 -7.128906 6.660156 -4.847656 7.609375 -3.015625 C 8.566406 -1.191406 9.988281 -0.28125 11.875 -0.28125 C 12.507812 -0.28125 13.140625 -0.394531 13.765625 -0.625 C 14.390625 -0.863281 14.914062 -1.207031 15.34375 -1.65625 C 16.03125 -2.175781 16.507812 -2.828125 16.78125 -3.609375 C 17.050781 -4.390625 17.265625 -5.539062 17.421875 -7.0625 L 18.0625 -7.0625 C 18.0625 -3.675781 18.097656 -1.320312 18.171875 0 L 17.53125 0 C 17.46875 -0.59375 17.382812 -1.015625 17.28125 -1.265625 C 17.1875 -1.523438 17.046875 -1.65625 16.859375 -1.65625 C 16.703125 -1.65625 16.503906 -1.578125 16.265625 -1.421875 C 15.429688 -0.828125 14.628906 -0.375 13.859375 -0.0625 C 13.097656 0.238281 12.175781 0.390625 11.09375 0.390625 C 9.113281 0.390625 7.378906 -0.0078125 5.890625 -0.8125 C 4.410156 -1.613281 3.257812 -2.773438 2.4375 -4.296875 C 1.613281 -5.816406 1.203125 -7.632812 1.203125 -9.75 C 1.203125 -11.800781 1.617188 -13.617188 2.453125 -15.203125 C 3.296875 -16.785156 4.46875 -18.015625 5.96875 -18.890625 C 7.476562 -19.773438 9.191406 -20.21875 11.109375 -20.21875 Z M 11.109375 -20.21875 "/></g></g></g><g fill="#4a6647" fill-opacity="1"><g transform="translate(156.579131, 217.445537)"><g><path d="M 21.890625 -0.203125 C 21.578125 1.910156 20.9375 3.367188 19.96875 4.171875 C 19.550781 4.503906 19.03125 4.769531 18.40625 4.96875 C 17.78125 5.164062 17.097656 5.265625 16.359375 5.265625 C 15.347656 5.265625 14.351562 5.101562 13.375 4.78125 C 12.394531 4.46875 11.1875 3.992188 9.75 3.359375 C 9.394531 3.210938 9.003906 3.050781 8.578125 2.875 C 8.160156 2.695312 7.691406 2.503906 7.171875 2.296875 L 6.5 2.09375 C 6.144531 2.28125 5.753906 2.425781 5.328125 2.53125 C 4.910156 2.632812 4.515625 2.6875 4.140625 2.6875 C 3.753906 2.6875 3.4375 2.625 3.1875 2.5 C 2.945312 2.382812 2.828125 2.203125 2.828125 1.953125 C 2.828125 1.453125 3.34375 1.203125 4.375 1.203125 C 5.0625 1.203125 5.769531 1.332031 6.5 1.59375 C 7.132812 1.40625 7.804688 1.15625 8.515625 0.84375 C 8.640625 0.78125 8.832031 0.695312 9.09375 0.59375 C 9.351562 0.5 9.585938 0.414062 9.796875 0.34375 C 8.066406 0.164062 6.550781 -0.34375 5.25 -1.1875 C 3.945312 -2.039062 2.945312 -3.191406 2.25 -4.640625 C 1.550781 -6.097656 1.203125 -7.800781 1.203125 -9.75 C 1.203125 -11.800781 1.617188 -13.617188 2.453125 -15.203125 C 3.296875 -16.785156 4.46875 -18.015625 5.96875 -18.890625 C 7.476562 -19.773438 9.191406 -20.21875 11.109375 -20.21875 C 13.085938 -20.21875 14.816406 -19.816406 16.296875 -19.015625 C 17.785156 -18.210938 18.941406 -17.050781 19.765625 -15.53125 C 20.585938 -14.007812 21 -12.191406 21 -10.078125 C 21 -8.097656 20.601562 -6.328125 19.8125 -4.765625 C 19.03125 -3.210938 17.929688 -1.988281 16.515625 -1.09375 C 15.097656 -0.195312 13.484375 0.285156 11.671875 0.359375 C 11.222656 0.421875 10.820312 0.503906 10.46875 0.609375 C 10.113281 0.722656 9.695312 0.882812 9.21875 1.09375 C 8.613281 1.351562 8.03125 1.566406 7.46875 1.734375 L 9.75 1.9375 C 12.113281 2.132812 13.820312 2.234375 14.875 2.234375 C 15.5625 2.234375 16.257812 2.1875 16.96875 2.09375 C 18.125 1.96875 19.035156 1.722656 19.703125 1.359375 C 20.378906 0.992188 20.941406 0.425781 21.390625 -0.34375 Z M 5.859375 -9.859375 C 5.859375 -7.910156 6.09375 -6.195312 6.5625 -4.71875 C 7.039062 -3.25 7.6875 -2.113281 8.5 -1.3125 C 9.3125 -0.507812 10.210938 -0.109375 11.203125 -0.109375 C 12.222656 -0.109375 13.125 -0.523438 13.90625 -1.359375 C 14.695312 -2.191406 15.300781 -3.351562 15.71875 -4.84375 C 16.144531 -6.332031 16.359375 -8.039062 16.359375 -9.96875 C 16.359375 -11.90625 16.117188 -13.609375 15.640625 -15.078125 C 15.160156 -16.554688 14.515625 -17.695312 13.703125 -18.5 C 12.890625 -19.3125 11.988281 -19.71875 11 -19.71875 C 9.976562 -19.71875 9.070312 -19.300781 8.28125 -18.46875 C 7.5 -17.632812 6.898438 -16.46875 6.484375 -14.96875 C 6.066406 -13.476562 5.859375 -11.773438 5.859375 -9.859375 Z M 5.859375 -9.859375 "/></g></g></g><g fill="#4a6647" fill-opacity="1"><g transform="translate(180.628098, 217.445537)"><g><path d="M 18.78125 -19.265625 C 18.164062 -19.171875 17.710938 -19.007812 17.421875 -18.78125 C 17.140625 -18.5625 16.945312 -18.207031 16.84375 -17.71875 C 16.738281 -17.238281 16.6875 -16.519531 16.6875 -15.5625 L 16.6875 -8.140625 C 16.6875 -5.472656 16.304688 -3.5 15.546875 -2.21875 C 15.035156 -1.394531 14.300781 -0.753906 13.34375 -0.296875 C 12.394531 0.160156 11.234375 0.390625 9.859375 0.390625 C 7.691406 0.390625 6.007812 -0.078125 4.8125 -1.015625 C 3.957031 -1.703125 3.378906 -2.570312 3.078125 -3.625 C 2.773438 -4.675781 2.625 -6.15625 2.625 -8.0625 L 2.625 -16.859375 C 2.625 -17.566406 2.570312 -18.078125 2.46875 -18.390625 C 2.375 -18.710938 2.179688 -18.925781 1.890625 -19.03125 C 1.597656 -19.144531 1.144531 -19.222656 0.53125 -19.265625 L 0.53125 -19.828125 C 1.476562 -19.765625 2.9375 -19.734375 4.90625 -19.734375 C 6.84375 -19.734375 8.328125 -19.765625 9.359375 -19.828125 L 9.359375 -19.265625 C 8.679688 -19.222656 8.1875 -19.144531 7.875 -19.03125 C 7.570312 -18.925781 7.363281 -18.710938 7.25 -18.390625 C 7.132812 -18.078125 7.078125 -17.566406 7.078125 -16.859375 L 7.078125 -6.296875 C 7.078125 -4.335938 7.363281 -2.894531 7.9375 -1.96875 C 8.507812 -1.050781 9.515625 -0.59375 10.953125 -0.59375 C 12.816406 -0.59375 14.128906 -1.222656 14.890625 -2.484375 C 15.660156 -3.742188 16.046875 -5.53125 16.046875 -7.84375 L 16.046875 -15.234375 C 16.046875 -16.316406 15.976562 -17.117188 15.84375 -17.640625 C 15.71875 -18.160156 15.46875 -18.535156 15.09375 -18.765625 C 14.71875 -19.003906 14.128906 -19.171875 13.328125 -19.265625 L 13.328125 -19.828125 C 14.035156 -19.765625 15.046875 -19.734375 16.359375 -19.734375 C 17.398438 -19.734375 18.207031 -19.765625 18.78125 -19.828125 Z M 18.78125 -19.265625 "/></g></g></g><g fill="#4a6647" fill-opacity="1"><g transform="translate(201.76546, 217.445537)"><g><path d="M 9.609375 -19.265625 C 8.972656 -19.222656 8.515625 -19.144531 8.234375 -19.03125 C 7.953125 -18.925781 7.757812 -18.710938 7.65625 -18.390625 C 7.550781 -18.078125 7.5 -17.566406 7.5 -16.859375 L 7.5 -2.96875 C 7.5 -2.257812 7.550781 -1.742188 7.65625 -1.421875 C 7.757812 -1.109375 7.953125 -0.894531 8.234375 -0.78125 C 8.515625 -0.664062 8.972656 -0.59375 9.609375 -0.5625 L 9.609375 0 C 8.597656 -0.0507812 7.1875 -0.078125 5.375 -0.078125 C 3.375 -0.078125 1.898438 -0.0507812 0.953125 0 L 0.953125 -0.5625 C 1.566406 -0.59375 2.019531 -0.664062 2.3125 -0.78125 C 2.601562 -0.894531 2.796875 -1.109375 2.890625 -1.421875 C 2.992188 -1.742188 3.046875 -2.257812 3.046875 -2.96875 L 3.046875 -16.859375 C 3.046875 -17.566406 2.992188 -18.078125 2.890625 -18.390625 C 2.796875 -18.710938 2.601562 -18.925781 2.3125 -19.03125 C 2.019531 -19.144531 1.566406 -19.222656 0.953125 -19.265625 L 0.953125 -19.828125 C 1.898438 -19.765625 3.375 -19.734375 5.375 -19.734375 C 7.1875 -19.734375 8.597656 -19.765625 9.609375 -19.828125 Z M 9.609375 -19.265625 "/></g></g></g><g fill="#4a6647" fill-opacity="1"><g transform="translate(214.140013, 217.445537)"><g><path d="M 7.953125 -20.1875 C 8.921875 -20.1875 9.691406 -20.09375 10.265625 -19.90625 C 10.847656 -19.71875 11.441406 -19.445312 12.046875 -19.09375 C 12.242188 -18.976562 12.421875 -18.882812 12.578125 -18.8125 C 12.742188 -18.738281 12.878906 -18.703125 12.984375 -18.703125 C 13.160156 -18.703125 13.296875 -18.800781 13.390625 -19 C 13.484375 -19.195312 13.554688 -19.507812 13.609375 -19.9375 L 14.25 -19.9375 C 14.15625 -18.6875 14.109375 -16.554688 14.109375 -13.546875 L 13.46875 -13.546875 C 13.394531 -14.554688 13.164062 -15.519531 12.78125 -16.4375 C 12.394531 -17.351562 11.851562 -18.09375 11.15625 -18.65625 C 10.457031 -19.226562 9.640625 -19.515625 8.703125 -19.515625 C 7.796875 -19.515625 7.054688 -19.253906 6.484375 -18.734375 C 5.910156 -18.222656 5.625 -17.53125 5.625 -16.65625 C 5.625 -16.007812 5.765625 -15.441406 6.046875 -14.953125 C 6.328125 -14.460938 6.71875 -14.015625 7.21875 -13.609375 C 7.726562 -13.210938 8.503906 -12.671875 9.546875 -11.984375 L 10.4375 -11.375 C 11.539062 -10.644531 12.410156 -10.007812 13.046875 -9.46875 C 13.679688 -8.925781 14.195312 -8.296875 14.59375 -7.578125 C 15 -6.859375 15.203125 -6.019531 15.203125 -5.0625 C 15.203125 -3.875 14.894531 -2.875 14.28125 -2.0625 C 13.664062 -1.25 12.828125 -0.632812 11.765625 -0.21875 C 10.710938 0.1875 9.546875 0.390625 8.265625 0.390625 C 7.210938 0.390625 6.34375 0.296875 5.65625 0.109375 C 4.96875 -0.078125 4.332031 -0.328125 3.75 -0.640625 C 3.34375 -0.898438 3.023438 -1.03125 2.796875 -1.03125 C 2.628906 -1.03125 2.5 -0.929688 2.40625 -0.734375 C 2.3125 -0.546875 2.238281 -0.234375 2.1875 0.203125 L 1.546875 0.203125 C 1.617188 -0.972656 1.65625 -3.492188 1.65625 -7.359375 L 2.296875 -7.359375 C 2.421875 -5.273438 2.882812 -3.582031 3.6875 -2.28125 C 4.5 -0.988281 5.734375 -0.34375 7.390625 -0.34375 C 8.398438 -0.34375 9.226562 -0.609375 9.875 -1.140625 C 10.53125 -1.679688 10.859375 -2.457031 10.859375 -3.46875 C 10.859375 -4.519531 10.519531 -5.414062 9.84375 -6.15625 C 9.175781 -6.90625 8.113281 -7.75 6.65625 -8.6875 C 5.539062 -9.40625 4.644531 -10.035156 3.96875 -10.578125 C 3.300781 -11.117188 2.753906 -11.757812 2.328125 -12.5 C 1.898438 -13.238281 1.6875 -14.09375 1.6875 -15.0625 C 1.6875 -16.1875 1.96875 -17.132812 2.53125 -17.90625 C 3.101562 -18.675781 3.863281 -19.25 4.8125 -19.625 C 5.769531 -20 6.816406 -20.1875 7.953125 -20.1875 Z M 7.953125 -20.1875 "/></g></g></g><g fill="#4a6647" fill-opacity="1"><g transform="translate(232.337777, 217.445537)"><g><path d="M 9.609375 -19.265625 C 8.972656 -19.222656 8.515625 -19.144531 8.234375 -19.03125 C 7.953125 -18.925781 7.757812 -18.710938 7.65625 -18.390625 C 7.550781 -18.078125 7.5 -17.566406 7.5 -16.859375 L 7.5 -2.96875 C 7.5 -2.257812 7.550781 -1.742188 7.65625 -1.421875 C 7.757812 -1.109375 7.953125 -0.894531 8.234375 -0.78125 C 8.515625 -0.664062 8.972656 -0.59375 9.609375 -0.5625 L 9.609375 0 C 8.597656 -0.0507812 7.1875 -0.078125 5.375 -0.078125 C 3.375 -0.078125 1.898438 -0.0507812 0.953125 0 L 0.953125 -0.5625 C 1.566406 -0.59375 2.019531 -0.664062 2.3125 -0.78125 C 2.601562 -0.894531 2.796875 -1.109375 2.890625 -1.421875 C 2.992188 -1.742188 3.046875 -2.257812 3.046875 -2.96875 L 3.046875 -16.859375 C 3.046875 -17.566406 2.992188 -18.078125 2.890625 -18.390625 C 2.796875 -18.710938 2.601562 -18.925781 2.3125 -19.03125 C 2.019531 -19.144531 1.566406 -19.222656 0.953125 -19.265625 L 0.953125 -19.828125 C 1.898438 -19.765625 3.375 -19.734375 5.375 -19.734375 C 7.1875 -19.734375 8.597656 -19.765625 9.609375 -19.828125 Z M 9.609375 -19.265625 "/></g></g></g><g fill="#4a6647" fill-opacity="1"><g transform="translate(244.71233, 217.445537)"><g><path d="M 17.96875 -19.828125 C 17.84375 -18.054688 17.78125 -16.46875 17.78125 -15.0625 C 17.78125 -14.1875 17.804688 -13.476562 17.859375 -12.9375 L 17.21875 -12.9375 C 16.769531 -15.226562 16.15625 -16.84375 15.375 -17.78125 C 14.601562 -18.71875 13.546875 -19.1875 12.203125 -19.1875 L 11.5625 -19.1875 L 11.5625 -3.1875 C 11.5625 -2.40625 11.640625 -1.835938 11.796875 -1.484375 C 11.960938 -1.128906 12.242188 -0.890625 12.640625 -0.765625 C 13.046875 -0.648438 13.6875 -0.582031 14.5625 -0.5625 L 14.5625 0 C 12.207031 -0.0507812 10.429688 -0.078125 9.234375 -0.078125 C 8.054688 -0.078125 6.347656 -0.0507812 4.109375 0 L 4.109375 -0.5625 C 4.992188 -0.582031 5.632812 -0.648438 6.03125 -0.765625 C 6.4375 -0.890625 6.71875 -1.128906 6.875 -1.484375 C 7.03125 -1.835938 7.109375 -2.40625 7.109375 -3.1875 L 7.109375 -19.1875 L 6.5 -19.1875 C 5.601562 -19.1875 4.84375 -18.988281 4.21875 -18.59375 C 3.59375 -18.195312 3.054688 -17.546875 2.609375 -16.640625 C 2.160156 -15.734375 1.773438 -14.5 1.453125 -12.9375 L 0.8125 -12.9375 C 0.863281 -13.476562 0.890625 -14.1875 0.890625 -15.0625 C 0.890625 -16.46875 0.828125 -18.054688 0.703125 -19.828125 C 2.398438 -19.765625 5.285156 -19.734375 9.359375 -19.734375 C 13.421875 -19.734375 16.289062 -19.765625 17.96875 -19.828125 Z M 17.96875 -19.828125 "/></g></g></g><g fill="#4a6647" fill-opacity="1"><g transform="translate(265.261774, 217.445537)"><g><path d="M 9.609375 -19.265625 C 8.972656 -19.222656 8.515625 -19.144531 8.234375 -19.03125 C 7.953125 -18.925781 7.757812 -18.710938 7.65625 -18.390625 C 7.550781 -18.078125 7.5 -17.566406 7.5 -16.859375 L 7.5 -2.96875 C 7.5 -2.257812 7.550781 -1.742188 7.65625 -1.421875 C 7.757812 -1.109375 7.953125 -0.894531 8.234375 -0.78125 C 8.515625 -0.664062 8.972656 -0.59375 9.609375 -0.5625 L 9.609375 0 C 8.597656 -0.0507812 7.1875 -0.078125 5.375 -0.078125 C 3.375 -0.078125 1.898438 -0.0507812 0.953125 0 L 0.953125 -0.5625 C 1.566406 -0.59375 2.019531 -0.664062 2.3125 -0.78125 C 2.601562 -0.894531 2.796875 -1.109375 2.890625 -1.421875 C 2.992188 -1.742188 3.046875 -2.257812 3.046875 -2.96875 L 3.046875 -16.859375 C 3.046875 -17.566406 2.992188 -18.078125 2.890625 -18.390625 C 2.796875 -18.710938 2.601562 -18.925781 2.3125 -19.03125 C 2.019531 -19.144531 1.566406 -19.222656 0.953125 -19.265625 L 0.953125 -19.828125 C 1.898438 -19.765625 3.375 -19.734375 5.375 -19.734375 C 7.1875 -19.734375 8.597656 -19.765625 9.609375 -19.828125 Z M 9.609375 -19.265625 "/></g></g></g><g fill="#4a6647" fill-opacity="1"><g transform="translate(277.636327, 217.445537)"><g><path d="M 11.109375 -20.21875 C 13.085938 -20.21875 14.816406 -19.816406 16.296875 -19.015625 C 17.785156 -18.210938 18.941406 -17.050781 19.765625 -15.53125 C 20.585938 -14.007812 21 -12.191406 21 -10.078125 C 21 -8.023438 20.578125 -6.203125 19.734375 -4.609375 C 18.898438 -3.023438 17.726562 -1.796875 16.21875 -0.921875 C 14.71875 -0.046875 13.007812 0.390625 11.09375 0.390625 C 9.113281 0.390625 7.378906 -0.0078125 5.890625 -0.8125 C 4.410156 -1.613281 3.257812 -2.773438 2.4375 -4.296875 C 1.613281 -5.816406 1.203125 -7.632812 1.203125 -9.75 C 1.203125 -11.800781 1.617188 -13.617188 2.453125 -15.203125 C 3.296875 -16.785156 4.46875 -18.015625 5.96875 -18.890625 C 7.476562 -19.773438 9.191406 -20.21875 11.109375 -20.21875 Z M 11 -19.71875 C 9.976562 -19.71875 9.070312 -19.300781 8.28125 -18.46875 C 7.5 -17.632812 6.898438 -16.46875 6.484375 -14.96875 C 6.066406 -13.476562 5.859375 -11.773438 5.859375 -9.859375 C 5.859375 -7.910156 6.09375 -6.195312 6.5625 -4.71875 C 7.039062 -3.25 7.6875 -2.113281 8.5 -1.3125 C 9.3125 -0.507812 10.210938 -0.109375 11.203125 -0.109375 C 12.222656 -0.109375 13.125 -0.523438 13.90625 -1.359375 C 14.695312 -2.191406 15.300781 -3.351562 15.71875 -4.84375 C 16.144531 -6.332031 16.359375 -8.039062 16.359375 -9.96875 C 16.359375 -11.90625 16.117188 -13.609375 15.640625 -15.078125 C 15.160156 -16.554688 14.515625 -17.695312 13.703125 -18.5 C 12.890625 -19.3125 11.988281 -19.71875 11 -19.71875 Z M 11 -19.71875 "/></g></g></g><g fill="#4a6647" fill-opacity="1"><g transform="translate(301.685295, 217.445537)"><g><path d="M 19.40625 -19.265625 C 18.789062 -19.171875 18.335938 -19.007812 18.046875 -18.78125 C 17.753906 -18.5625 17.554688 -18.207031 17.453125 -17.71875 C 17.347656 -17.238281 17.296875 -16.519531 17.296875 -15.5625 L 17.296875 0.0625 L 16.625 0.03125 L 15.875 0.0625 L 3.71875 -15.34375 L 3.71875 -4.59375 C 3.71875 -3.488281 3.773438 -2.679688 3.890625 -2.171875 C 4.003906 -1.660156 4.25 -1.285156 4.625 -1.046875 C 5 -0.816406 5.601562 -0.65625 6.4375 -0.5625 L 6.4375 0 C 5.707031 -0.0507812 4.703125 -0.078125 3.421875 -0.078125 C 2.390625 -0.078125 1.578125 -0.0507812 0.984375 0 L 0.984375 -0.5625 C 1.597656 -0.65625 2.046875 -0.8125 2.328125 -1.03125 C 2.617188 -1.257812 2.816406 -1.613281 2.921875 -2.09375 C 3.023438 -2.582031 3.078125 -3.300781 3.078125 -4.25 L 3.078125 -16.859375 C 3.078125 -17.566406 3.023438 -18.078125 2.921875 -18.390625 C 2.816406 -18.710938 2.617188 -18.925781 2.328125 -19.03125 C 2.046875 -19.144531 1.597656 -19.222656 0.984375 -19.265625 L 0.984375 -19.828125 C 1.578125 -19.765625 2.390625 -19.734375 3.421875 -19.734375 C 4.347656 -19.734375 5.148438 -19.765625 5.828125 -19.828125 L 16.65625 -6.46875 L 16.65625 -15.234375 C 16.65625 -16.335938 16.597656 -17.144531 16.484375 -17.65625 C 16.378906 -18.164062 16.140625 -18.535156 15.765625 -18.765625 C 15.390625 -19.003906 14.78125 -19.171875 13.9375 -19.265625 L 13.9375 -19.828125 C 14.664062 -19.765625 15.675781 -19.734375 16.96875 -19.734375 C 18.007812 -19.734375 18.820312 -19.765625 19.40625 -19.828125 Z M 19.40625 -19.265625 "/></g></g></g></svg>
